<?xml version="1.0" encoding="utf-8"?>
<svg viewBox="0 0 500 500" xmlns="http://www.w3.org/2000/svg">
  <path d="M 294.552 288.327 C 267.589 293.244 252.716 303.945 233.43 332.58 C 229.208 338.75 228.92 339.522 228.92 345.499 C 228.92 350.127 227.961 354.658 225.466 362.467 C 221.244 375.676 221.436 378.762 227.48 389.078 C 229.879 393.128 231.798 396.985 231.798 397.466 C 231.798 398.045 230.551 399.877 228.92 401.612 C 223.834 407.107 223.93 415.591 229.208 421.28 C 232.279 424.462 239.475 427.45 241.394 426.197 C 241.874 425.908 241.202 423.69 239.955 421.183 C 238.611 418.773 237.556 416.074 237.652 415.206 C 237.652 414.242 238.132 414.531 238.707 416.074 C 240.338 419.641 247.919 431.404 251.661 436.031 C 259.05 445.287 274.978 454.639 289.851 458.592 C 294.361 459.749 302.325 460.809 309.042 461.099 C 315.374 461.388 319.692 461.966 318.637 462.352 C 312.879 464.376 286.396 460.616 274.21 455.989 L 267.878 453.579 L 266.246 455.796 C 260.201 463.798 253.292 482.021 251.565 494.361 L 251.085 498.025 L 310.577 498.025 C 366.806 498.025 370.068 497.928 369.588 496.29 C 369.301 495.422 367.765 489.637 366.231 483.466 C 362.872 470.162 360.185 463.509 355.867 457.821 C 354.14 455.507 352.701 453.097 352.701 452.422 C 352.796 451.843 355.195 449.529 358.17 447.408 C 363.543 443.551 370.932 435.742 374.962 429.572 C 376.305 427.547 378.416 425.908 380.336 425.33 C 381.967 424.847 385.037 422.823 387.148 420.895 C 393.769 414.531 394.441 405.854 388.587 400.744 C 386.572 399.009 386.284 398.141 386.86 395.056 C 387.244 393.128 387.819 391.296 388.204 391.006 C 388.587 390.718 389.451 387.921 390.123 384.739 C 391.082 380.112 391.082 376.544 390.123 366.614 C 389.451 359.865 388.491 354.37 388.011 354.37 C 387.532 354.37 387.244 351.67 387.34 348.295 C 387.532 342.992 387.052 341.354 383.597 334.605 C 378.992 325.445 372.179 315.419 365.27 307.898 C 361.049 303.27 358.266 301.438 347.423 296.039 C 339.747 292.279 331.878 289.097 328.041 288.327 C 320.076 286.59 303.764 286.59 294.552 288.327 Z" fill="#F5F5F5"/>
  <path d="M 133.975 164.159 C 132.245 178.572 127.152 196.156 124.653 196.156 C 123.98 196.156 119.368 194.235 114.466 191.928 C 106.586 188.277 94.573 184.626 90.153 184.626 C 89 184.626 89.576 186.355 92.363 192.024 C 96.592 200.576 100.436 213.933 99.955 218.545 L 99.667 221.62 L 91.018 222.293 C 65.839 224.214 54.019 225.367 54.019 225.848 C 54.019 226.232 58.247 230.748 63.437 236.033 C 73.143 245.834 80.254 256.308 79.774 259.96 C 79.582 261.305 74.68 265.34 64.59 272.355 C 56.421 278.025 49.598 283.117 49.406 283.598 C 49.214 284.078 50.271 284.751 51.808 285.135 C 62.091 287.346 66.512 288.786 70.164 290.901 C 75.161 293.879 80.35 298.3 82.945 301.951 L 84.867 304.641 L 74.104 315.307 C 65.07 324.339 63.533 326.166 64.686 327.222 C 65.455 327.895 71.221 330.105 77.563 332.027 C 83.906 333.949 89.48 335.967 89.961 336.447 C 90.441 336.927 89.672 341.828 87.846 348.554 C 86.213 354.8 85.156 360.277 85.444 360.757 C 85.924 361.622 101.781 360.853 104.376 359.893 C 106.778 359.028 107.739 361.334 108.412 368.925 C 108.796 373.345 109.373 377.093 109.757 377.284 C 110.526 377.766 121.29 373.153 121.29 372.384 C 121.29 372.096 120.04 370.078 118.503 367.868 C 114.082 361.43 111.103 354.8 108.316 345.575 C 106.97 340.771 104.952 334.333 103.991 331.162 C 102.934 327.991 101.877 323.667 101.685 321.553 C 100.339 311.368 100.147 307.62 101.108 307.62 C 101.589 307.62 102.069 309.254 102.069 311.175 C 102.165 315.5 104.28 327.03 105.721 331.162 C 106.298 332.699 108.124 338.369 109.757 343.653 C 113.698 356.049 119.368 367.196 124.269 372.096 C 126.575 374.402 131.572 377.669 136.377 379.879 L 144.45 383.627 L 144.162 387.182 L 143.873 390.738 L 122.443 397.848 L 101.012 405.054 L 98.225 414.183 C 96.688 419.276 92.363 434.362 88.519 447.815 C 84.675 461.171 81.023 472.701 80.447 473.278 C 79.87 473.854 78.14 479.043 76.699 484.904 C 75.257 490.67 73.912 496.243 73.623 497.109 C 73.143 498.742 76.987 498.838 145.219 498.838 C 213.546 498.838 217.391 498.742 217.391 497.109 C 217.391 496.243 212.874 491.247 207.3 486.058 C 201.726 480.869 197.209 476.065 197.209 475.296 C 197.209 474.623 200.669 471.068 204.801 467.417 C 215.372 458.385 215.469 457.808 211.144 446.757 C 203.84 428.213 188.176 399.577 182.409 394.197 C 180.583 392.467 179.91 390.833 179.91 388.239 C 179.91 384.299 180.776 383.339 185.677 381.705 C 190.674 380.072 195.575 376.324 198.939 371.616 C 201.63 367.868 202.783 367.196 210.182 364.89 C 214.7 363.448 218.351 361.91 218.351 361.526 C 218.351 361.046 216.622 358.548 214.507 356.049 C 210.375 351.052 209.606 347.497 212.393 346.632 C 213.258 346.344 216.622 345.863 219.793 345.479 C 222.964 345.191 225.847 344.71 226.231 344.422 C 227.097 344.037 222.196 330.394 221.043 329.912 C 220.658 329.721 220.273 328.856 220.273 327.895 C 220.273 326.742 221.619 325.877 225.078 325.012 C 231.036 323.475 245.259 316.652 245.259 315.403 C 245.259 314.827 243.434 313.481 241.224 312.328 C 228.923 306.082 218.928 298.876 220.946 297.723 C 221.33 297.531 224.886 296.378 228.73 295.225 C 232.574 294.072 238.821 291.67 242.664 289.939 C 249.296 286.961 262.943 278.889 262.365 278.313 C 261.981 278.025 235.937 266.878 233.439 266.013 C 232.286 265.533 231.998 264.956 232.478 264.091 C 232.862 263.323 239.205 257.173 246.509 250.447 C 253.717 243.624 259.675 237.763 259.675 237.379 C 259.675 236.61 253.716 235.553 236.13 233.055 C 229.787 232.094 224.213 231.133 223.829 230.748 C 223.349 230.364 227.77 221.908 233.631 212.011 C 243.146 195.772 244.972 192.313 244.01 192.313 C 243.818 192.313 235.937 195.099 226.52 198.558 C 212.777 203.555 209.029 204.516 208.069 203.555 C 205.954 201.441 203.936 185.586 203.936 171.365 L 203.936 157.624 L 196.152 161.756 C 187.022 166.657 174.818 176.17 169.148 182.8 C 167.033 185.394 164.823 187.508 164.439 187.508 C 163.958 187.508 160.306 183.088 156.174 177.611 C 149.063 168.194 137.05 154.838 135.705 154.838 C 135.32 154.838 134.551 159.066 133.975 164.159 Z M 136.666 404.958 C 133.11 407.745 114.947 455.694 116.388 458.192 C 116.869 459.056 121.001 462.996 125.614 467.033 C 130.323 471.068 134.263 474.816 134.455 475.392 C 134.648 475.969 133.494 478.083 131.861 480.1 C 130.323 482.118 128.978 483.175 128.978 482.502 C 128.978 481.926 129.842 480.196 130.996 478.851 L 133.014 476.257 L 123.788 467.609 C 117.349 461.555 114.562 458.288 114.562 456.75 C 114.562 453.676 125.518 424.272 132.245 409.187 C 133.879 405.535 135.224 403.709 136.377 403.709 C 137.915 403.805 137.915 403.901 136.666 404.958 Z" fill="#F5F5F5"/>
  <path d="M 183.036 394.938 C 183.036 395.228 184.876 397.925 187.201 400.912 C 189.526 403.899 192.723 408.62 194.466 411.222 C 199.02 418.448 209.579 440.994 212.679 449.955 C 216.069 459.493 215.779 460.168 205.607 468.743 C 201.732 472.019 198.536 475.488 198.536 476.258 C 198.536 477.126 202.894 481.75 208.223 486.76 C 214.036 492.06 217.91 496.396 217.91 497.552 C 217.91 499.287 218.685 499.383 231.472 499.383 C 241.645 499.383 245.036 499.094 245.036 498.13 C 245.036 494.083 221.301 409.198 219.072 405.152 C 218.685 404.381 212.485 402.357 205.317 400.527 C 198.148 398.793 190.688 396.673 188.654 395.806 C 184.682 394.264 183.036 393.975 183.036 394.938 Z" fill="#F5F5F5"/>
</svg>